<?xml version="1.0" encoding="UTF-8"?>
<svg width="24px" height="24px" viewBox="0 0 24 24" version="1.1" xmlns="http://www.w3.org/2000/svg" xmlns:xlink="http://www.w3.org/1999/xlink">
    <title>assets/icons/external</title>
    <g id="Symbols" stroke="none" stroke-width="1" fill="none" fill-rule="evenodd">
        <g id="/assets/icons/external">
            <polygon id="Path" points="0 0 24 0 24 24 0 24"></polygon>
            <path d="M12,6 C12.5522847,6 13,6.44771525 13,7 C13,7.51283584 12.6139598,7.93550716 12.1166211,7.99327227 L12,8 L7,8 C6.48716416,8 6.06449284,8.38604019 6.00672773,8.88337887 L6,9 L6,18 C6,18.5128358 6.38604019,18.9355072 6.88337887,18.9932723 L7,19 L16,19 C16.5128358,19 16.9355072,18.6139598 16.9932723,18.1166211 L17,18 L17,13 C17,12.4477153 17.4477153,12 18,12 C18.5128358,12 18.9355072,12.3860402 18.9932723,12.8833789 L19,13 L19,18 C19,19.5976809 17.75108,20.9036609 16.1762728,20.9949073 L16,21 L7,21 C5.40231912,21 4.09633912,19.75108 4.00509269,18.1762728 L4,18 L4,9 C4,7.40231912 5.24891996,6.09633912 6.82372721,6.00509269 L7,6 L12,6 Z M21,3 L21.0193545,3.00018615 C21.042681,3.00063489 21.0659949,3.00189498 21.0892501,3.00396641 L21,3 C21.0506203,3 21.1003621,3.00376119 21.1489612,3.01101934 C21.165949,3.01362808 21.1833753,3.01670217 21.2007258,3.02024007 C21.2227461,3.0246398 21.2444365,3.02983363 21.2658396,3.03572097 C21.2814633,3.04009773 21.2968513,3.04472872 21.3121425,3.04973809 C21.3317977,3.05612249 21.3515792,3.06331574 21.3710585,3.07110396 C21.3887956,3.07819642 21.4060985,3.08567905 21.4232215,3.09367336 C21.4438914,3.10337664 21.4642939,3.11379392 21.484277,3.12487577 C21.4963944,3.13149883 21.5086131,3.13860692 21.5207088,3.14599545 C21.546275,3.1617187 21.5711307,3.17849009 21.5951593,3.19631351 C21.602603,3.20175344 21.6098424,3.20728448 21.6170223,3.21292769 C21.6801818,3.26255171 21.7374483,3.31981825 21.787214,3.38324992 L21.7071068,3.29289322 C21.7425008,3.32828727 21.774687,3.36567442 21.8036654,3.40469339 C21.8215099,3.42886931 21.8382813,3.45372505 21.8539326,3.47933981 C21.8613931,3.49138689 21.8685012,3.50360556 21.8753288,3.5159379 C21.8862061,3.53570605 21.8966234,3.5561086 21.9063462,3.57690085 C21.914321,3.5939015 21.9218036,3.61120435 21.9287745,3.62866398 C21.9366843,3.6484208 21.9438775,3.66820232 21.9504533,3.68826359 C21.9552713,3.70314866 21.9599023,3.71853672 21.9641549,3.73400703 C21.9701664,3.75556352 21.9753602,3.77725392 21.9798348,3.7992059 C21.9832978,3.81662474 21.9863719,3.83405099 21.9889822,3.85153313 C21.9905825,3.86176411 21.9920139,3.87254508 21.9932723,3.88337887 L21.9962979,3.9137692 C21.9978436,3.93173451 21.9989053,3.94973363 21.9994829,3.96774538 L22,4 L22,9 C22,9.55228475 21.5522847,10 21,10 C20.4871642,10 20.0644928,9.61395981 20.0067277,9.11662113 L20,9 L20,6.414 L11.7071068,14.7071068 C11.3165825,15.0976311 10.6834175,15.0976311 10.2928932,14.7071068 C9.93240926,14.3466228 9.90467972,13.7793918 10.2097046,13.3871006 L10.2928932,13.2928932 L18.584,5 L16,5 C15.4871642,5 15.0644928,4.61395981 15.0067277,4.11662113 L15,4 C15,3.48716416 15.3860402,3.06449284 15.8833789,3.00672773 L16,3 L21,3 Z" id="Combined-Shape" fill="#0098CE" fill-rule="nonzero"></path>
        </g>
    </g>
</svg>